<?xml version="1.0" standalone="no"?>
<!DOCTYPE svg PUBLIC "-//W3C//DTD SVG 20010904//EN"
 "http://www.w3.org/TR/2001/REC-SVG-20010904/DTD/svg10.dtd">
<svg version="1.0" xmlns="http://www.w3.org/2000/svg"
 width="189.000000pt" height="65.000000pt" viewBox="0 0 189.000000 65.000000"
 preserveAspectRatio="xMidYMid meet">

<g transform="translate(0.000000,65.000000) scale(0.100000,-0.100000)"
fill="#000000" stroke="none">
<path d="M0 325 l0 -325 945 0 945 0 0 325 0 325 -945 0 -945 0 0 -325z m418
262 c20 -21 24 -48 9 -63 -4 -4 -7 1 -7 11 0 25 -29 55 -53 55 -45 0 -74 -58
-44 -89 10 -10 8 -12 -8 -9 -17 3 -20 11 -19 48 1 29 8 48 20 57 28 21 78 16
102 -10z m12 -81 c0 -2 -7 -7 -16 -10 -8 -3 -12 -2 -9 4 6 10 25 14 25 6z m81
-117 c20 -39 25 -79 11 -79 -7 0 -62 121 -62 136 0 15 33 -23 51 -57z m756 9
c-3 -8 -6 -5 -6 6 -1 11 2 17 5 13 3 -3 4 -12 1 -19z m-1186 -100 c-3 -21 -6
-26 -9 -15 -3 17 3 47 11 47 2 0 1 -15 -2 -32z m69 -39 c0 -10 5 -19 11 -19 5
0 8 -4 5 -9 -7 -10 40 -71 54 -71 12 0 79 -44 80 -52 1 -17 -46 -12 -55 6 -25
48 -95 32 -95 -22 0 -34 9 -47 37 -56 26 -8 63 9 63 28 0 8 7 17 16 20 22 8 8
-33 -19 -57 -36 -31 -100 -13 -113 32 -11 39 -11 45 -1 58 5 7 7 19 4 27 -8
20 3 28 20 15 9 -8 13 -8 13 -1 0 6 -4 14 -10 17 -5 3 -10 16 -10 29 0 12 -7
31 -15 42 -19 25 -19 45 0 38 8 -4 15 -15 15 -25z m287 -26 c3 -7 -8 -13 -24
-15 -17 -2 -32 -11 -38 -25 -11 -27 -25 -30 -25 -7 0 21 50 65 69 62 8 -2 16
-8 18 -15z m53 -87 c0 -8 -7 -22 -16 -30 -17 -18 -54 -22 -54 -6 0 6 7 10 15
10 8 0 20 9 27 20 15 23 28 26 28 6z"/>
</g>
</svg>
